<svg xmlns="http://www.w3.org/2000/svg" xmlns:xlink="http://www.w3.org/1999/xlink" width="2280.64" height="313.619" viewBox="0 0 2280.64 313.619">
  <defs>
    <clipPath id="clip-path">
      <rect id="Rectangle_1" data-name="Rectangle 1" width="2280.64" height="313.619" transform="translate(0.064 0.862)" fill="#000"/>
    </clipPath>
  </defs>
  <g id="full-logo-joi-and-blokes-white" transform="translate(-0.064 -0.862)" clip-path="url(#clip-path)">
    <path id="Path_1" data-name="Path 1" d="M187.139,21.066c.422,1.294.856,2.659,1.358,3.881-.137-.359-.285-.719-.422-1.078C187.778,22.936,187.424,22,187.139,21.066Z" transform="translate(1947.529 210.339)" fill="#000"/>
    <path id="Path_2" data-name="Path 2" d="M198.987,18.684c-.65-1.652-1.3-3.306-2.008-4.886.285.719.639,1.437.924,2.155C198.268,16.888,198.622,17.751,198.987,18.684Z" transform="translate(2049.968 134.675)" fill="#000"/>
    <path id="Path_3" data-name="Path 3" d="M300.319,15.954c-.285-.719-.639-1.437-.936-2.155.719,1.58,1.369,3.234,2.02,4.886C301.038,17.751,300.684,16.888,300.319,15.954ZM188.075,99.533s.285.719.422,1.078c-.5-1.222-.936-2.588-1.358-3.881C187.424,97.665,187.778,98.6,188.075,99.533Z" transform="translate(1947.529 134.675)" fill="#000" fill-rule="evenodd"/>
    <path id="Path_4" data-name="Path 4" d="M362.736,168.733a67.258,67.258,0,0,1-21.417,49.443c-14.149,13.152-34.928,21.56-61.651,21.56-49.67,0-80.786-29.825-94.513-63.888l-.856-2.228,33.992-21.343,1.152,3.521c4.884,14.876,12.358,27.021,22.342,35.358s22.57,13.08,37.883,13.08c13.579,0,24.5-3.521,32.052-9.487a29.935,29.935,0,0,0,11.638-24.291c0-10.132-3.742-16.96-11.718-22.565-8.261-5.75-21.121-9.99-39.377-13.439-20.7-3.665-39.457-10.348-53.036-21.056-13.727-10.781-22.2-25.656-22.2-45.132S206.07,34.2,220.23,23.852c14.16-10.277,33.341-15.81,53.823-15.81,22.422,0,40.245,4.959,54.405,14.3,14.16,9.27,24.361,22.853,31.9,39.6l1.015,2.371L329.531,82.781l-1.221-3.162c-9.916-26.015-29.964-38.232-53.823-38.232-11.285,0-21.338,2.443-28.526,6.9-7.052,4.384-11.285,10.779-11.285,19.116,0,8.912,4.53,15.81,13.727,21.56,9.265,5.82,23.072,10.132,40.883,13.582,22.433,4.312,40.758,11.139,53.549,21.776C355.7,135.1,362.736,149.616,362.736,168.733Z" transform="translate(1917.963 74.746)" fill="#000" fill-rule="evenodd"/>
    <path id="Path_5" data-name="Path 5" d="M379.673,117.852c0-33.849-11.205-61.373-29.964-80.417C330.95,18.462,304.786,8.042,275.473,8.042,212.156,8.042,163.5,55.976,163.5,124.32s47.787,115.416,111.971,115.416c47.422,0,79.405-26.3,97.879-64.1l1.152-2.443-30.911-17.967-1.29,2.8c-6.538,13.727-15.016,25.225-25.947,33.346-10.92,8.049-24.43,12.864-41.317,12.864-21.418,0-38.59-7.977-50.662-21.2-11.57-12.648-18.69-30.255-20.413-50.665h175.71ZM205.686,98.591c3.663-16.528,11.137-30.327,21.771-40.172,11.433-10.493,26.666-16.6,45.425-16.6,17.321,0,33.341,5.245,45.277,15.235,11.2,9.415,18.976,23.284,20.619,41.537Z" transform="translate(1701.458 74.746)" fill="#000" fill-rule="evenodd"/>
    <path id="Path_6" data-name="Path 6" d="M330.3,308.444H283.719L210.635,194.538l-21.486,20.769v93.137H147.033V.862h42.116V163.349l77.762-74.524h52.237l-80.124,77.9Z" transform="translate(1530.008 0)" fill="#000"/>
    <path id="Path_7" data-name="Path 7" d="M214.449,37.938c-21.272-19.62-50.019-29.9-79.986-29.9s-58.355,10.277-79.627,29.9C33.564,57.7,19.91,86.734,19.91,123.889s13.654,66.187,34.926,85.95c21.271,19.619,49.874,29.9,79.627,29.9s58.714-10.277,79.986-29.9c21.343-19.763,35-48.8,35-85.95S235.792,57.7,214.449,37.938ZM134.463,202.509c-41.035,0-73.878-31.836-73.878-78.62s32.843-78.62,73.878-78.62,74.308,31.836,74.308,78.62S175.929,202.509,134.463,202.509Z" transform="translate(206.603 74.746)" fill="#000" fill-rule="evenodd"/>
    <path id="Path_8" data-name="Path 8" d="M145.807.862V218.9c0,18.9-5.175,33.2-14.014,42.759s-21.7,14.733-37.873,14.733c-14.517,0-27.381-4.456-36.579-13.224s-15.092-22.063-15.307-40.388v-2.587L.064,215.667V218.9c0,30.183,9.486,54.114,26.087,70.571,16.673,16.385,40.173,25.009,67.769,25.009s51.743-9.415,68.2-26.23c16.457-16.745,25.655-40.676,25.655-69.35V.862ZM2.939,221.775V218.9c0,3.665.144,7.258.431,10.708C3.155,227.093,3.011,224.435,2.939,221.775Z" transform="translate(0 0.001)" fill="#000" fill-rule="evenodd"/>
    <path id="Path_9" data-name="Path 9" d="M123.072,11.9H58.537V53.579h64.535Z" transform="translate(608.724 114.873)" fill="#000"/>
    <path id="Path_10" data-name="Path 10" d="M216.387,108.692v42.472H110.242v106H67.914V2.619h42.328V108.692Z" transform="translate(706.345 18.293)" fill="#000"/>
    <path id="Path_11" data-name="Path 11" d="M85.623,8.5H43.51V232.283H85.623Z" transform="translate(452.287 79.467)" fill="#000"/>
    <path id="Path_12" data-name="Path 12" d="M295.964,167.086c-9.916-10.708-22.923-18.253-37.369-23.5,22.923-10.923,44.774-33.633,44.774-68.272,0-21.344-9.208-40.1-26.016-53.4S236.242.862,206.061.862H92.8V308.444H207.351c57.851,0,107.224-34.351,107.224-89.975C314.574,196.479,307.534,179.663,295.964,167.086Zm-160.334-129H203.9c17.1,0,31.687,3.306,41.819,10.42,10,6.971,16.1,17.966,16.1,34.136s-6.1,26.805-16.1,33.777c-10.132,7.043-24.715,10.348-41.819,10.348H135.63ZM253.061,257.852c-12.369,8.7-29.9,12.936-50.457,12.936H135.63V164H202.6c20.562,0,38.088,4.168,50.457,12.863,12.141,8.552,19.546,21.776,19.546,40.748S265.2,249.228,253.061,257.852Z" transform="translate(965.406 0)" fill="#000" fill-rule="evenodd"/>
    <path id="Path_13" data-name="Path 13" d="M158.333,1.114H116.217V302.947h42.116Z" transform="translate(1209.2 2.623)" fill="#000"/>
    <path id="Path_14" data-name="Path 14" d="M85.623,1.114H43.51V43.227H85.623Z" transform="translate(452.287 2.623)" fill="#000"/>
    <path id="Path_15" data-name="Path 15" d="M318.152,37.938c-21.349-19.62-50.092-29.9-80.067-29.9s-58.353,10.277-79.622,29.9c-21.2,19.763-34.927,48.8-34.927,85.95s13.727,66.187,34.927,85.95c21.269,19.619,49.875,29.9,79.622,29.9s58.718-10.277,80.067-29.9c21.269-19.763,34.927-48.8,34.927-85.95S339.421,57.7,318.152,37.938ZM238.084,202.509c-40.952,0-73.871-31.836-73.871-78.62s32.919-78.62,73.871-78.62S312.4,77.1,312.4,123.889,279.561,202.509,238.084,202.509Z" transform="translate(1285.383 74.746)" fill="#000" fill-rule="evenodd"/>
  </g>
</svg>
