<svg width="834" height="121" viewBox="0 0 834 121" fill="none" xmlns="http://www.w3.org/2000/svg">
<path d="M118.244 29.4488C117.248 28.1335 116.159 26.9244 114.976 25.7951C114.657 25.4497 100.361 11.1802 100.029 10.8481C93.6915 4.17841 84.5772 0.405121 74.5062 0.405121H26.7555C23.0885 0.405121 19.86 3.02251 19.0894 6.62307L0.169811 95.7072C-0.308493 97.9393 0.236243 100.211 1.64458 101.952C1.95017 102.324 17.2559 117.616 17.6146 117.922C19.023 119.649 21.1222 120.632 23.3808 120.632C24.8689 120.632 26.3304 120.194 27.5926 119.37L59.732 98.5903H74.5727C96.1628 98.5903 117.62 82.3546 123.413 61.6148C126.708 49.8432 124.821 38.1114 118.231 29.4355L118.244 29.4488Z" fill="#8000FF"/>
<path d="M74.5064 7.04816H26.7557C26.2243 7.04816 25.7061 7.47332 25.5998 8.00477L17.0435 48.2355C16.9372 48.7669 17.2694 49.1921 17.8008 49.1921C27.8585 49.1921 37.7302 41.0476 39.8692 30.9899L40.8923 26.2069H70.4408C79.3958 26.2069 84.9361 33.9262 82.1062 43.0671C79.6349 51.0256 71.238 56.8582 63.2397 56.8582H61.1936L64.0369 43.479C64.2096 42.6951 63.3991 42.2434 62.6684 42.7084L33.359 61.6545L35.8037 50.1487C35.9099 49.6172 35.5778 49.1921 35.0463 49.1921C24.9887 49.1921 15.117 57.3365 12.9779 67.3942L6.66697 97.0889C6.49425 97.8728 7.30471 98.3245 8.03545 97.8595L41.8223 76.0169H58.6294C76.9777 76.0169 95.9637 62.1993 101.079 43.8909C106.699 23.8154 94.3029 7.04816 74.5064 7.04816Z" fill="#FBF9FF"/>
<path d="M175 96.9762V24.0784C175 23.5946 175.38 23.2145 175.864 23.2145H212.01C223.155 23.2145 231.501 25.3397 237.047 29.5902C242.593 33.8407 245.358 40.2856 245.358 48.9248C245.358 57.564 242.524 64.1126 236.84 68.3631C231.155 72.6136 222.464 74.7388 210.766 74.7388H196.339V96.9762C196.339 97.46 195.959 97.8401 195.475 97.8401H175.864C175.38 97.8401 175 97.46 175 96.9762ZM210.334 58.3243C215.069 58.3243 218.507 57.5813 220.632 56.0781C222.758 54.5749 223.829 52.1559 223.829 48.8211C223.829 45.4864 222.792 43.2748 220.701 41.8234C218.611 40.3547 215.224 39.629 210.559 39.629H196.339V58.3416H210.352L210.334 58.3243Z" fill="#050614"/>
<path d="M301.34 97.4254L286.636 72.5617H269.496V96.9934C269.496 97.4772 269.116 97.8574 268.632 97.8574H249.66C249.176 97.8574 248.796 97.4772 248.796 96.9934V24.0784C248.796 23.5946 249.176 23.2145 249.66 23.2145H286.947C309.167 23.2145 320.294 31.4736 320.294 47.9918C320.294 52.9334 319.206 57.063 317.046 60.3804C314.886 63.6979 311.569 66.3588 307.111 68.3803L324.58 96.5442C324.942 97.1144 324.528 97.8574 323.854 97.8574H302.066C301.755 97.8574 301.478 97.7019 301.323 97.4254H301.34ZM285.599 56.6655C290.334 56.6655 293.789 55.9744 295.949 54.5749C298.109 53.1753 299.197 50.9118 299.197 47.7844C299.197 44.657 298.161 42.5145 296.122 41.1495C294.066 39.7845 290.627 39.1106 285.824 39.1106H269.513V56.6655H285.617H285.599Z" fill="#050614"/>
<path d="M328.294 96.9762V24.0784C328.294 23.5946 328.675 23.2145 329.158 23.2145H349.374C349.858 23.2145 350.238 23.5946 350.238 24.0784V96.9762C350.238 97.46 349.858 97.8401 349.374 97.8401H329.158C328.675 97.8401 328.294 97.46 328.294 96.9762Z" fill="#050614"/>
<path d="M356.804 97.1662L353.849 83.2744C353.763 82.8424 353.884 82.3932 354.195 82.0821L396.13 40.3547H354.765C354.212 40.3547 353.797 39.8536 353.918 39.318L357.201 23.9056C357.288 23.5082 357.633 23.2145 358.048 23.2145H420.216C420.63 23.2145 420.976 23.5082 421.062 23.9056L424.017 37.7975C424.103 38.2294 423.982 38.6787 423.671 38.9897L381.737 80.7171H423.101C423.654 80.7171 424.069 81.2182 423.948 81.7539L420.665 97.1662C420.579 97.5636 420.233 97.8574 419.818 97.8574H357.65C357.236 97.8574 356.89 97.5636 356.804 97.1662Z" fill="#050614"/>
<path d="M427.611 96.9762V24.0784C427.611 23.5946 427.991 23.2145 428.475 23.2145H490.85C491.265 23.2145 491.61 23.5082 491.697 23.9056L494.91 39.007C495.031 39.5426 494.617 40.0437 494.064 40.0437H449.14V51.4302H489.571C490.055 51.4302 490.435 51.8103 490.435 52.2941V67.3955C490.435 67.8793 490.055 68.2594 489.571 68.2594H449.14V81.0109H494.064C494.617 81.0109 495.031 81.512 494.91 82.0476L491.697 97.149C491.61 97.5464 491.265 97.8401 490.85 97.8401H428.475C427.991 97.8401 427.611 97.46 427.611 96.9762Z" fill="#050614"/>
<path d="M498.591 96.9762V24.0784C498.591 23.5946 498.971 23.2145 499.455 23.2145H535.601C546.746 23.2145 555.091 25.3397 560.638 29.5902C566.184 33.8407 568.949 40.2856 568.949 48.9248C568.949 57.564 566.115 64.1126 560.43 68.3631C554.746 72.6136 546.055 74.7388 534.357 74.7388H519.93V96.9762C519.93 97.46 519.55 97.8401 519.066 97.8401H499.472C498.988 97.8401 498.608 97.46 498.608 96.9762H498.591ZM533.925 58.3243C538.659 58.3243 542.098 57.5813 544.223 56.0781C546.348 54.5749 547.42 52.1559 547.42 48.8211C547.42 45.4864 546.383 43.2748 544.292 41.8234C542.202 40.3547 538.815 39.629 534.15 39.629H519.93V58.3416H533.942L533.925 58.3243Z" fill="#050614"/>
<path d="M572.387 96.9762V24.0784C572.387 23.5946 572.767 23.2145 573.251 23.2145H593.467C593.951 23.2145 594.331 23.5946 594.331 24.0784V96.9762C594.331 97.46 593.951 97.8401 593.467 97.8401H573.251C572.767 97.8401 572.387 97.46 572.387 96.9762Z" fill="#050614"/>
<path d="M680.014 70.2464C680.533 70.2464 680.948 70.7129 680.878 71.2313C679.738 80.0951 675.764 87.0238 668.974 91.9827C661.941 97.1317 652.524 99.7234 640.758 99.7234C631.98 99.7234 624.378 98.1857 617.968 95.1274C611.557 92.0691 606.598 87.5594 603.074 81.6502C599.549 75.7237 597.804 68.6913 597.804 60.5359C597.804 52.7952 599.514 45.9702 602.918 40.0437C606.339 34.1172 611.264 29.5211 617.708 26.2382C624.153 22.9553 631.877 21.3311 640.862 21.3311C651.661 21.3311 660.282 23.5255 666.727 27.9142C672.93 32.1474 677.146 38.4368 679.392 46.7996C679.531 47.3179 679.168 47.8363 678.649 47.8881L658.365 50.2034C657.967 50.2552 657.604 50.0133 657.466 49.6332C656.136 46.0047 654.218 43.3439 651.678 41.6679C649 39.8882 645.354 39.007 640.758 39.007C634.417 39.007 629.475 40.9076 625.916 44.7089C622.356 48.5101 620.577 53.78 620.577 60.5359C620.577 67.2918 622.374 72.6654 625.968 76.4321C629.561 80.1988 634.624 82.0821 641.173 82.0821C646.252 82.0821 650.244 81.1318 653.147 79.2139C655.877 77.3997 657.725 74.6351 658.693 70.9375C658.797 70.5574 659.125 70.281 659.522 70.281H680.032L680.014 70.2464Z" fill="#050614"/>
<path d="M740.541 97.4772L717.284 65.011L706.416 74.6351V96.9762C706.416 97.46 706.036 97.8401 705.552 97.8401H685.336C684.852 97.8401 684.472 97.46 684.472 96.9762V24.0784C684.472 23.5946 684.852 23.2145 685.336 23.2145H705.552C706.036 23.2145 706.416 23.5946 706.416 24.0784V51.6375L736.895 23.4391C737.051 23.2836 737.258 23.2145 737.483 23.2145H760.843C761.638 23.2145 762.001 24.1821 761.431 24.7177L732.23 51.5511L764.886 96.4924C765.301 97.0626 764.886 97.8574 764.195 97.8574H741.249C740.973 97.8574 740.714 97.7191 740.541 97.4945V97.4772Z" fill="#050614"/>
<path d="M811.503 45.6246C811.141 45.6592 810.795 45.4518 810.64 45.1063C809.447 42.4799 807.72 40.562 805.456 39.3525C803.02 38.0567 799.668 37.4174 795.417 37.4174C790.614 37.4174 786.968 37.9357 784.497 38.9897C782.026 40.0264 780.782 41.5642 780.782 43.5858C780.782 45.4691 781.439 46.8687 782.769 47.7671C784.1 48.6656 786.674 49.4432 790.51 50.0652L806.614 52.6742C816.307 54.212 823.287 56.8038 827.572 60.4668C831.857 64.1298 834 69.227 834 75.7755C834 83.6545 830.821 89.6155 824.497 93.6414C818.156 97.6846 808.773 99.7062 796.385 99.7062C783.996 99.7062 774.528 97.5118 768.014 93.1231C761.742 88.8898 758.096 82.6005 757.094 74.2377C757.025 73.7194 757.439 73.2701 757.958 73.2701H778.26C778.657 73.2701 778.985 73.5466 779.089 73.944C779.867 77.1578 781.56 79.5422 784.169 81.1145C786.951 82.7906 791.029 83.6199 796.402 83.6199C801.413 83.6199 805.283 82.9979 807.996 81.7366C810.709 80.4752 812.074 78.7129 812.074 76.3975C812.074 74.6524 811.331 73.3047 809.827 72.3198C808.324 71.3522 805.732 70.5747 802.035 70.0218L788.765 68.0348C778.519 66.497 771.037 63.8188 766.286 59.983C761.551 56.1472 759.184 50.8945 759.184 44.2078C759.184 37.0372 762.467 31.4217 769.016 27.3786C775.564 23.3354 784.618 21.3138 796.195 21.3138C806.925 21.3138 815.236 23.1626 821.128 26.8602C826.76 30.4023 830.302 35.655 831.771 42.6354C831.875 43.1365 831.512 43.6376 830.994 43.6722L811.555 45.6073L811.503 45.6246Z" fill="#050614"/>
</svg>
