<svg width="199" height="124" viewBox="0 0 199 124" fill="none" xmlns="http://www.w3.org/2000/svg">
<path d="M33.8379 85.8466C35.4759 85.8916 37.1064 86.2914 38.6115 87.0456L44.0683 89.7803C48.1029 91.8023 52.8557 91.7991 56.8877 89.7719L62.2738 87.0637C65.4794 85.452 69.256 85.4502 72.4631 87.0589L75.869 88.7675C81.1681 91.4257 87.4065 91.4378 92.716 88.8003L96.2979 87.0209C99.4956 85.4324 103.252 85.4407 106.443 87.0432L109.843 88.7507C115.158 91.4205 121.42 91.4264 126.74 88.7666L130.193 87.0406C131.501 86.3868 132.903 86.0006 134.322 85.8818L137.814 78.5065C134.101 78.0009 130.272 78.6069 126.836 80.3247L123.383 82.0507C120.18 83.6518 116.412 83.6483 113.213 82.0412L109.813 80.3337C104.512 77.6714 98.2699 77.6577 92.9575 80.2967L89.3756 82.076C86.1796 83.6637 82.4253 83.6564 79.2355 82.0563L75.8296 80.3478C70.5017 77.6751 64.2264 77.6781 58.901 80.3557L53.5149 83.0638C51.6018 84.0257 49.3466 84.0272 47.4322 83.0678L41.9755 80.3332C39.1861 78.9352 36.1371 78.2704 33.1006 78.3388L33.8379 85.8466Z" fill="black"/>
<path d="M138.938 90.0615V89.6911C140.42 87.1509 144.551 77.9893 146.086 74.179L146.456 73.2794L137.301 53.7517C135.343 49.518 134.602 47.9833 133.385 46.6603V46.3428H147.303V46.6603C146.933 46.872 146.668 47.6129 146.668 48.2479C146.668 49.4651 147.25 50.7352 147.462 51.3702L152.384 63.4891H152.595L156.67 52.7462C157.252 51.2115 157.729 49.4122 157.729 48.195C157.729 47.3483 157.305 46.8191 157.093 46.6603V46.3428H166.937V46.6603C165.931 48.195 164.079 52.5345 162.597 56.0802L148.676 90.0615H138.938Z" fill="black"/>
<path d="M119.753 71.812V71.4944C120.759 69.7481 121.076 68.6367 121.076 66.3082V42.4815C121.076 40.642 120.611 38.9045 119.912 38.0419V37.7186C122.678 37.5183 129.652 34.629 131.701 32.7364L132.117 32.9405C131.626 34.4361 131.237 39.1215 131.237 41.7043C131.237 49.5639 131.237 57.8106 131.237 65.6732C131.237 67.7371 131.66 69.6951 132.56 71.5474V71.812H119.753Z" fill="black"/>
<path d="M104.114 71.7974V71.4799C105.119 69.7335 105.437 68.6221 105.437 66.2936V54.4394C105.437 52.6401 105.066 50.6239 104.273 49.6184V49.3009C106.844 49.129 113.635 46.5877 115.333 45.0195L115.598 45.1783V65.6586C115.598 67.7225 116.021 69.6806 116.921 71.5328V71.7974H104.114Z" fill="black"/>
<path d="M115.596 40.9583C113.961 42.4286 107.945 45.048 105.12 45.3899V37.1289C107.647 36.5042 113.796 33.9075 115.596 32.6973V40.9583Z" fill="black"/>
<path d="M69.9991 64.7067C69.9991 59.838 73.9152 58.462 79.5248 57.7211C83.7055 57.139 90.0031 56.504 90.0031 54.3871C90.0031 52.5349 87.41 51.7411 83.8643 51.7411C79.366 51.7411 75.5558 53.0112 73.2272 54.1755V47.137C76.9317 45.9728 80.742 45.3906 86.1928 45.3906C92.9666 45.3906 100.164 46.8724 100.164 55.6043V65.0242C100.164 67.2469 100.323 69.3637 101.434 71.5334V71.798H90.0031V67.1939C88.5213 69.6283 85.3461 72.486 80.0011 72.486C74.1798 72.486 69.9991 69.4166 69.9991 64.7067ZM80.2657 63.5953C80.2657 65.9768 81.8004 66.8235 83.9701 66.8235C86.1928 66.8235 88.6801 65.9768 90.0031 64.7596V58.7266C88.733 59.838 85.7694 60.4201 83.4938 60.7376C81.2712 61.1081 80.2657 62.0077 80.2657 63.5953Z" fill="black"/>
<path d="M49.048 72.4325C41.4274 72.4325 36.7443 71.1069 32.2461 69.5722L31.4783 61.425L31.7429 61.3192C36.0295 63.8594 42.9092 65.2353 48.1483 65.2353C53.8108 65.2353 56.0864 63.8594 56.0864 61.7955C56.0864 59.9432 53.4933 59.467 51.4823 59.1494L43.2796 57.7735C37.6171 56.8209 31.4783 54.7041 31.4783 47.5598C31.4783 39.0396 40.369 35.2822 50.1593 35.2822C56.1394 35.2822 62.1194 36.1819 65.8238 38.0341L62.9132 45.1255C58.8912 43.1145 53.8638 42.1619 49.8947 42.1619C44.8673 42.1619 42.9092 43.4849 42.9092 45.1784C42.9092 47.1365 45.2377 47.5598 47.1958 47.8773L54.6576 49.1474C62.3311 50.3646 67.7819 52.9048 67.7819 59.467C67.7819 68.7281 58.5737 72.4325 49.048 72.4325Z" fill="black"/>
</svg>
