<?xml version="1.0" encoding="UTF-8"?>
<svg id="Layer_3" data-name="Layer 3" xmlns="http://www.w3.org/2000/svg" viewBox="0 0 4834.76 1110.59">
  <defs>
    <style>
      .cls-1 {
        fill: #f6f1ea;
      }
    </style>
  </defs>
  <g id="Layer_1" data-name="Layer 1">
    <g>
      <path class="cls-1" d="M198.63,627.8v482.79H0V0h258.08c173.34,0,259.01,81.77,259.01,275.96v39.95c0,158.3-58.86,205.34-103.22,227.83,64.34,33.37,94.55,84.16,94.55,239.11,0,107.23-1.55,269.35,7.12,327.74h-192.43c-12.86-50.21-11.94-194.79-11.94-336.55,0-124.96-13.32-146.24-89.07-146.24h-23.46ZM199.18,459.49h24.63c66.44,0,93.55-22.54,93.55-125.91v-53.66c0-74.54-13.95-111.61-87.14-111.61h-31.04v291.17Z"/>
      <path class="cls-1" d="M806.37,846.27l-25.47,264.32h-202.83L724.33,0h296.61l149.72,1110.59h-206.93l-28.49-264.32h-128.87ZM918.36,657.89c-14.71-142.11-35.32-358.27-44.99-464.62h-7.83c-3.56,77.42-28.11,327.28-41.81,464.62h94.64Z"/>
      <path class="cls-1" d="M1652.91,620.06h-213.23v302.73h249.96l-23.88,187.79h-425.27V0h423.72v188.87h-224.54v243.4h213.23v187.79Z"/>
      <path class="cls-1" d="M2495.95,756.75c0-171.88,1.55-415.63,4.11-551.88h-5.36c-21.61,222.2-67.32,672.1-95.56,905.72h-168.73c-22.83-242.83-67.45-700.92-89.07-908.55h-6.36c2.55,130.4,7.75,371.19,7.75,562.58v345.97h-180.5V0h285.51c26.94,211.16,57.23,488.39,69,638.81h4.27c15.96-160.76,50.32-394.11,82.07-638.81h284.38v1110.59h-191.51v-353.84Z"/>
      <path class="cls-1" d="M3221.46,620.06h-213.23v302.73h249.96l-23.88,187.79h-425.27V0h423.72v188.87h-224.54v243.4h213.23v187.79Z"/>
      <path class="cls-1" d="M3329.3,0h244.55c213.1,0,286.61,104.31,286.61,334.21v417.47c0,191.39-37.7,358.91-273.09,358.91h-258.08V0ZM3528.48,938.45h38.79c77.96,0,90.91-54.61,90.91-141.26v-497.34c0-82.01-17.13-126.64-92.46-126.64h-37.24v765.24Z"/>
      <path class="cls-1" d="M4167.05,0v1110.59h-198.64V0h198.64Z"/>
      <path class="cls-1" d="M4470.47,846.27l-25.47,264.32h-202.83L4388.43,0h296.61l149.72,1110.59h-206.93l-28.49-264.32h-128.87ZM4582.46,657.89c-14.71-142.11-35.32-358.27-44.99-464.62h-7.83c-3.56,77.42-28.11,327.28-41.81,464.62h94.64Z"/>
    </g>
  </g>
</svg>