<?xml version="1.0" encoding="UTF-8"?>
<svg id="Layer_3" data-name="Layer 3" xmlns="http://www.w3.org/2000/svg" viewBox="0 0 1379.95 3012.16">
  <defs>
    <style>
      .cls-1 {
        fill: #f0194f;
      }
    </style>
  </defs>
  <g id="Layer_1" data-name="Layer 1">
    <path class="cls-1" d="M592.48,1741.26v1270.9H0V0h738.72c487.48,0,641.22,298.5,641.22,773.39v108.55c0,339.21-93.75,511.07-239.99,601.53,179.99,99.5,228.74,266.84,228.74,705.55,0,361.82-3.75,705.55,7.5,823.14h-577.48c-26.25-54.27-33.75-262.32-33.75-949.78,0-298.5-22.5-321.12-142.49-321.12h-30ZM596.23,1207.58h45c97.5,0,138.74-40.71,138.74-230.66v-239.71c0-167.34-33.75-203.52-149.99-203.52h-33.75v673.89Z"/>
  </g>
</svg>