<?xml version="1.0" encoding="UTF-8"?>
<svg id="Layer_2" data-name="Layer 2" xmlns="http://www.w3.org/2000/svg" viewBox="0 0 4428.75 4428.75">
  <defs>
    <style>
      .cls-1 {
        fill: #f0194f;
      }

      .cls-2 {
        fill: #f6f1ea;
      }
    </style>
  </defs>
  <g id="Layer_1" data-name="Layer 1">
    <g>
      <rect class="cls-2" y="0" width="4428.75" height="4428.75"/>
      <g>
        <path class="cls-1" d="M1335.68,2347.02v716.77h-334.15v-1698.82h416.63c274.93,0,361.64,168.35,361.64,436.18v61.22c0,191.31-52.87,288.24-135.35,339.25,101.51,56.12,129.01,150.5,129.01,397.92,0,204.06-2.11,397.92,4.23,464.24h-325.69c-14.8-30.61-19.03-147.95-19.03-535.66,0-168.35-12.69-181.11-80.37-181.11h-16.92ZM1337.79,2046.02h25.38c54.99,0,78.25-22.96,78.25-130.09v-135.19c0-94.38-19.03-114.79-84.59-114.79h-19.03v380.07Z"/>
        <path class="cls-1" d="M2209.11,2706.68l-16.92,357.11h-342.61l150.16-1698.82h535.06l148.04,1698.82h-346.84l-16.92-357.11h-109.97ZM2304.28,2369.97c-6.34-130.09-31.72-573.93-38.07-665.75h-14.8c-2.11,73.97-23.26,499.95-29.61,665.75h82.48Z"/>
        <path class="cls-1" d="M3374.36,2336.81h-258.01v392.82h310.89l-38.07,334.15h-609.08v-1698.82h606.97v334.15h-270.7v303.54h258.01v334.15Z"/>
      </g>
    </g>
  </g>
</svg>