<?xml version="1.0" encoding="UTF-8"?>
<svg id="Layer_3" data-name="Layer 3" xmlns="http://www.w3.org/2000/svg" viewBox="0 0 4300.99 3012.16">
  <g id="Layer_1" data-name="Layer 1">
    <g>
      <path d="M592.48,1741.26v1270.9H0V0h738.72c487.48,0,641.22,298.5,641.22,773.39v108.55c0,339.21-93.75,511.07-239.99,601.53,179.99,99.5,228.74,266.84,228.74,705.55,0,361.82-3.75,705.55,7.5,823.14h-577.48c-26.25-54.27-33.75-262.32-33.75-949.78,0-298.5-22.5-321.12-142.49-321.12h-30ZM596.23,1207.58h45c97.5,0,138.74-40.71,138.74-230.66v-239.71c0-167.34-33.75-203.52-149.99-203.52h-33.75v673.89Z"/>
      <path d="M2141.16,2378.97l-30,633.19h-607.48L1769.92,0h948.71l262.49,3012.16h-614.98l-30-633.19h-194.99ZM2309.9,1781.97c-11.25-230.66-56.25-1017.62-67.5-1180.44h-26.25c-3.75,131.16-41.25,886.46-52.5,1180.44h146.24Z"/>
      <path d="M4207.24,1723.17h-457.48v696.51h551.23l-67.5,592.48h-1079.96V0h1076.21v592.48h-479.98v538.21h457.48v592.48Z"/>
    </g>
  </g>
</svg>