<?xml version="1.0" encoding="UTF-8"?>
<svg id="Layer_2" data-name="Layer 2" xmlns="http://www.w3.org/2000/svg" viewBox="0 0 2425.7 1698.82">
  <defs>
    <style>
      .cls-1 {
        fill: #f0194f;
      }
    </style>
  </defs>
  <g id="Layer_1" data-name="Layer 1">
    <g>
      <path class="cls-1" d="M334.15,982.05v716.77H0V0h416.63c274.93,0,361.64,168.35,361.64,436.18v61.22c0,191.31-52.87,288.24-135.35,339.25,101.51,56.12,129.01,150.5,129.01,397.92,0,204.06-2.11,397.92,4.23,464.24h-325.69c-14.8-30.61-19.03-147.95-19.03-535.66,0-168.35-12.69-181.11-80.37-181.11h-16.92ZM336.26,681.06h25.38c54.99,0,78.25-22.96,78.25-130.09v-135.19c0-94.38-19.03-114.79-84.59-114.79h-19.03v380.07Z"/>
      <path class="cls-1" d="M1207.59,1341.71l-16.92,357.11h-342.61L998.21,0h535.06l148.04,1698.82h-346.84l-16.92-357.11h-109.97ZM1302.75,1005.01c-6.34-130.09-31.72-573.93-38.07-665.75h-14.8c-2.11,73.97-23.26,499.95-29.61,665.75h82.48Z"/>
      <path class="cls-1" d="M2372.83,971.85h-258.01v392.82h310.89l-38.07,334.15h-609.08V0h606.97v334.15h-270.7v303.54h258.01v334.15Z"/>
    </g>
  </g>
</svg>